<mxfile host="app.diagrams.net" modified="2024-03-18T12:51:07.691Z" agent="Mozilla/5.0 (Windows NT 10.0; Win64; x64; rv:123.0) Gecko/20100101 Firefox/123.0" version="24.0.6" etag="Bs2mKQkrzx0W7Dr9uhWf" type="github">
  <diagram name="Page-1" id="EMMeVgMW24aV4jfTmwC9">
    <mxGraphModel>
      <root>
        <mxCell id="0" />
        <mxCell id="1" parent="0" />
      </root>
    </mxGraphModel>
  </diagram>
</mxfile>
